<svg width="173" height="102" viewBox="0 0 173 102" fill="none" xmlns="http://www.w3.org/2000/svg">
<path fill-rule="evenodd" clip-rule="evenodd" d="M43.823 69.2758H106.462C106.816 69.2758 107.162 69.2377 107.494 69.1653C107.827 69.2377 108.173 69.2758 108.527 69.2758H144.321C146.982 69.2758 149.139 67.1261 149.139 64.4742C149.139 61.8223 146.982 59.6725 144.321 59.6725H140.191C137.529 59.6725 135.372 57.5227 135.372 54.8709C135.372 52.219 137.529 50.0692 140.191 50.0692H153.269C155.93 50.0692 158.087 47.9194 158.087 45.2676C158.087 42.6157 155.93 40.4659 153.269 40.4659H138.126C140.787 40.4659 142.944 38.3161 142.944 35.6642C142.944 33.0124 140.787 30.8626 138.126 30.8626H94.0718C96.7329 30.8626 98.8902 28.7128 98.8902 26.0609C98.8902 23.4091 96.7329 21.2593 94.0718 21.2593H54.8364C52.1753 21.2593 50.0181 23.4091 50.0181 26.0609C50.0181 28.7128 52.1753 30.8626 54.8364 30.8626H27.3028C24.6417 30.8626 22.4845 33.0124 22.4845 35.6642C22.4845 38.3161 24.6417 40.4659 27.3028 40.4659H44.5113C47.1725 40.4659 49.3297 42.6157 49.3297 45.2676C49.3297 47.9194 47.1725 50.0692 44.5113 50.0692H16.9777C14.3166 50.0692 12.1594 52.219 12.1594 54.8709C12.1594 57.5227 14.3166 59.6725 16.9777 59.6725H43.823C41.1619 59.6725 39.0046 61.8223 39.0046 64.4742C39.0046 67.1261 41.1619 69.2758 43.823 69.2758ZM156.023 69.2757C158.684 69.2757 160.841 67.1259 160.841 64.474C160.841 61.8221 158.684 59.6723 156.023 59.6723C153.362 59.6723 151.204 61.8221 151.204 64.474C151.204 67.1259 153.362 69.2757 156.023 69.2757Z" fill="#AEEDC3" fill-opacity="0.2"/>
<path fill-rule="evenodd" clip-rule="evenodd" d="M115.328 72.2059C116.425 70.8671 117.411 69.467 118.286 68.0179C120.21 64.8308 121.597 61.4067 122.445 57.8764C123.303 54.3061 123.608 50.6271 123.36 46.975C123.144 43.7882 122.505 40.6218 121.444 37.5657C120.391 34.5337 118.922 31.6104 117.035 28.8835C115.91 27.2586 114.637 25.7034 113.215 24.2366C111.128 22.083 108.839 20.2419 106.406 18.7144C103.793 17.0731 101.014 15.7938 98.1431 14.878C94.5476 13.7311 90.8078 13.1541 87.0675 13.1499C84.1572 13.1467 81.2467 13.4901 78.4035 14.1816C75.2026 14.9601 72.0872 16.1797 69.1538 17.8423C66.5751 19.3037 64.1372 21.1075 61.9055 23.2548C59.1011 25.9533 56.8294 28.9952 55.0926 32.2507C53.3922 35.438 52.2045 38.83 51.5313 42.3049C50.8378 45.885 50.6905 49.553 51.0915 53.1758C51.6112 57.8714 53.052 62.4909 55.4185 66.7443C56.9328 69.4659 58.8261 72.0377 61.0996 74.3835C64.7087 78.1075 68.9224 80.8971 73.4354 82.7467C78.9237 84.9959 84.8546 85.8548 90.6793 85.3128C95.568 84.8579 100.382 83.4163 104.796 80.9817" fill="white"/>
<path d="M115.328 72.2059C116.425 70.8671 117.411 69.467 118.286 68.0179C120.21 64.8308 121.597 61.4067 122.445 57.8764C123.303 54.3061 123.608 50.6271 123.36 46.975C123.144 43.7882 122.505 40.6218 121.444 37.5657C120.391 34.5337 118.922 31.6104 117.035 28.8835C115.91 27.2586 114.637 25.7034 113.215 24.2366C111.128 22.083 108.839 20.2419 106.406 18.7144C103.793 17.0731 101.014 15.7938 98.1431 14.878C94.5476 13.7311 90.8078 13.1541 87.0675 13.1499C84.1572 13.1467 81.2467 13.4901 78.4035 14.1816C75.2026 14.9601 72.0872 16.1797 69.1538 17.8423C66.5751 19.3037 64.1372 21.1075 61.9055 23.2548C59.1011 25.9533 56.8294 28.9952 55.0926 32.2507C53.3922 35.438 52.2045 38.83 51.5313 42.3049C50.8378 45.885 50.6905 49.553 51.0915 53.1758C51.6112 57.8714 53.052 62.4909 55.4185 66.7443C56.9328 69.4659 58.8261 72.0377 61.0996 74.3835C64.7087 78.1075 68.9224 80.8971 73.4354 82.7467C78.9237 84.9959 84.8546 85.8548 90.6793 85.3128C95.568 84.8579 100.382 83.4163 104.796 80.9817" stroke="#0CCA4A" stroke-width="2.21642" stroke-linecap="round" stroke-linejoin="round"/>
<path d="M107.432 79.1721C109.724 77.702 111.762 75.8679 113.088 74.3872" stroke="#AEEDC3" stroke-opacity="0.5" stroke-width="2.21642" stroke-linecap="round"/>
<path d="M76.5024 20.3755C77.0113 20.1852 77.2691 19.6198 77.0781 19.1126C76.8872 18.6054 76.3197 18.3484 75.8108 18.5387L76.5024 20.3755ZM71.6638 21.5538L72.1505 22.4064L71.6638 21.5538ZM65.3228 26.2893L64.639 25.5836L65.3228 26.2893ZM62.3177 28.06C61.9677 28.4745 62.0211 29.0933 62.4371 29.4421C62.8531 29.7909 63.474 29.7377 63.824 29.3233L62.3177 28.06ZM61.722 32.1238C62.0219 31.6721 61.8976 31.0635 61.4442 30.7645C60.9909 30.4655 60.3802 30.5893 60.0802 31.0411L61.722 32.1238ZM59.3623 34.1607L60.2314 34.6211L59.3623 34.1607ZM57.4977 35.7358C57.2768 36.2308 57.5005 36.8106 57.9972 37.0307C58.494 37.2508 59.0757 37.028 59.2965 36.533L57.4977 35.7358ZM75.8108 18.5387C74.2242 19.1317 72.6743 19.8525 71.177 20.7011L72.1505 22.4064C73.5566 21.6094 75.0122 20.9326 76.5024 20.3755L75.8108 18.5387ZM71.177 20.7011C68.8501 22.02 66.651 23.6474 64.639 25.5836L66.0066 26.9949C67.8991 25.1737 69.9656 23.6448 72.1505 22.4064L71.177 20.7011ZM64.639 25.5836C63.8143 26.3773 63.0405 27.2041 62.3177 28.06L63.824 29.3233C64.5032 28.5189 65.2308 27.7415 66.0066 26.9949L64.639 25.5836ZM60.0802 31.0411C59.5053 31.9068 58.9763 32.7943 58.4931 33.7002L60.2314 34.6211C60.6852 33.7704 61.182 32.9369 61.722 32.1238L60.0802 31.0411ZM58.4931 33.7002C58.1362 34.3692 57.8044 35.0482 57.4977 35.7358L59.2965 36.533C59.5847 35.8872 59.8963 35.2494 60.2314 34.6211L58.4931 33.7002Z" fill="#AEEDC3" fill-opacity="0.5"/>
<path fill-rule="evenodd" clip-rule="evenodd" d="M71.8594 46.7953C70.7203 45.747 68.9534 45.8275 67.9128 46.975C66.8723 48.1225 66.9522 49.9025 68.0912 50.9507L81.2385 63.0491C82.8332 64.5167 85.3069 64.404 86.7637 62.7975C86.8246 62.7292 86.8246 62.7293 86.8834 62.6591L105.645 39.9273C106.632 38.7323 106.47 36.9579 105.283 35.9643C104.097 34.9706 102.336 35.1339 101.349 36.329L83.7101 57.7006L71.8594 46.7953Z" stroke="#0CCA4A" stroke-width="2.21642" stroke-linecap="round"/>
<path d="M58.321 85.5532V89.265" stroke="#AEEDC3" stroke-opacity="0.5" stroke-width="2.21642" stroke-linecap="round" stroke-linejoin="round"/>
<path d="M58.321 96.6885V100.4" stroke="#AEEDC3" stroke-opacity="0.5" stroke-width="2.21642" stroke-linecap="round" stroke-linejoin="round"/>
<path d="M50.8716 92.9765H54.5963" stroke="#AEEDC3" stroke-opacity="0.5" stroke-width="2.21642" stroke-linecap="round" stroke-linejoin="round"/>
<path d="M62.0458 92.9765H65.7705" stroke="#AEEDC3" stroke-opacity="0.5" stroke-width="2.21642" stroke-linecap="round" stroke-linejoin="round"/>
<path d="M120.597 1.3291V5.04086" stroke="#AEEDC3" stroke-opacity="0.5" stroke-width="2.21642" stroke-linecap="round" stroke-linejoin="round"/>
<path d="M120.597 12.4644V16.1761" stroke="#AEEDC3" stroke-opacity="0.5" stroke-width="2.21642" stroke-linecap="round" stroke-linejoin="round"/>
<path d="M113.148 8.75234H116.872" stroke="#AEEDC3" stroke-opacity="0.5" stroke-width="2.21642" stroke-linecap="round" stroke-linejoin="round"/>
<path d="M124.322 8.75234H128.046" stroke="#AEEDC3" stroke-opacity="0.5" stroke-width="2.21642" stroke-linecap="round" stroke-linejoin="round"/>
</svg>
